<svg xmlns="http://www.w3.org/2000/svg" viewBox="0 0 320 240" role="img" aria-labelledby="t">
<title id="t">Flux Schnell preview</title>
<defs><linearGradient id="bg" x1="0" y1="0" x2="0" y2="1"><stop offset="0" stop-color="#000208"/><stop offset="1" stop-color="#0A0F1A"/></linearGradient></defs>
<rect width="320" height="240" fill="url(#bg)"/>
<g fill="#4FA8FF" fill-opacity="0.1"><rect x="237" y="34" width="3" height="3"/><rect x="265" y="128" width="2" height="2"/><rect x="179" y="168" width="4" height="4"/></g><g fill="#4FA8FF" fill-opacity="0.1"><rect x="77" y="72" width="3" height="3"/><rect x="198" y="33" width="2" height="2"/><rect x="94" y="91" width="3" height="3"/></g><g fill="#4FA8FF" fill-opacity="0.16"><rect x="150" y="98" width="3" height="3"/><rect x="65" y="58" width="3" height="3"/><rect x="225" y="206" width="4" height="4"/></g><g fill="#4FA8FF" fill-opacity="0.16"><rect x="49" y="132" width="3" height="3"/><rect x="34" y="146" width="2" height="2"/><rect x="177" y="79" width="4" height="4"/></g><g fill="#4FA8FF" fill-opacity="0.24"><rect x="194" y="26" width="2" height="2"/></g><g fill="#4FA8FF" fill-opacity="0.24"><rect x="264" y="153" width="4" height="4"/></g><rect x="267" y="121" width="1" height="43" fill="#4FA8FF" fill-opacity="0.3"/><rect x="86" y="37" width="1" height="27" fill="#4FA8FF" fill-opacity="0.2"/>
<path d="M70 168 L104 152 L70 136" fill="none" stroke="#4FA8FF" stroke-width="3" stroke-opacity="0.8"/><path d="M92 176 L118 158 L92 140" fill="none" stroke="#4FA8FF" stroke-width="2" stroke-opacity="0.45"/><polygon points="223,69 237,69 243,75 243,89 237,95 223,95 217,89 217,75" fill="none" stroke="#4FA8FF" stroke-width="1.2" stroke-opacity="0.5"/>
<polygon points="18,4 316,4 316,222 302,236 4,236 4,18" fill="none" stroke="#4FA8FF" stroke-width="1" stroke-opacity="0.30"/><rect x="284" y="4" width="28" height="1.5" fill="#22D3EE" fill-opacity="0.55"/><rect x="310.5" y="4" width="1.5" height="28" fill="#22D3EE" fill-opacity="0.55"/><rect x="4" y="234.5" width="28" height="1.5" fill="#22D3EE" fill-opacity="0.55"/><rect x="4" y="208" width="1.5" height="28" fill="#22D3EE" fill-opacity="0.55"/>
</svg>
