<svg xmlns="http://www.w3.org/2000/svg" viewBox="0 0 320 240" role="img" aria-labelledby="t">
<title id="t">GPT-Image 2 preview</title>
<defs><linearGradient id="bg" x1="0" y1="0" x2="0" y2="1"><stop offset="0" stop-color="#000208"/><stop offset="1" stop-color="#0A0F1A"/></linearGradient></defs>
<rect width="320" height="240" fill="url(#bg)"/>
<g fill="#4FA8FF" fill-opacity="0.1"><rect x="62" y="111" width="2" height="2"/><rect x="169" y="29" width="3" height="3"/><rect x="167" y="21" width="3" height="3"/><rect x="131" y="176" width="3" height="3"/><rect x="288" y="108" width="3" height="3"/><rect x="298" y="21" width="3" height="3"/><rect x="253" y="177" width="4" height="4"/><rect x="201" y="30" width="4" height="4"/><rect x="45" y="145" width="3" height="3"/></g><g fill="#7CE3FF" fill-opacity="0.1"><rect x="256" y="94" width="3" height="3"/><rect x="204" y="25" width="3" height="3"/><rect x="215" y="131" width="3" height="3"/><rect x="300" y="90" width="3" height="3"/><rect x="109" y="165" width="4" height="4"/><rect x="77" y="174" width="3" height="3"/><rect x="168" y="28" width="2" height="2"/><rect x="24" y="176" width="3" height="3"/><rect x="42" y="18" width="2" height="2"/></g><g fill="#4FA8FF" fill-opacity="0.16"><rect x="56" y="34" width="3" height="3"/><rect x="34" y="136" width="2" height="2"/><rect x="193" y="218" width="2" height="2"/><rect x="209" y="38" width="2" height="2"/><rect x="102" y="22" width="3" height="3"/><rect x="56" y="135" width="3" height="3"/><rect x="220" y="38" width="3" height="3"/></g><g fill="#7CE3FF" fill-opacity="0.16"><rect x="39" y="174" width="3" height="3"/><rect x="241" y="35" width="3" height="3"/><rect x="86" y="194" width="3" height="3"/><rect x="85" y="25" width="3" height="3"/><rect x="260" y="71" width="4" height="4"/><rect x="117" y="106" width="3" height="3"/><rect x="20" y="112" width="4" height="4"/></g><g fill="#4FA8FF" fill-opacity="0.24"><rect x="149" y="194" width="4" height="4"/><rect x="158" y="140" width="3" height="3"/><rect x="47" y="94" width="3" height="3"/><rect x="294" y="104" width="4" height="4"/></g><g fill="#7CE3FF" fill-opacity="0.24"><rect x="185" y="93" width="2" height="2"/><rect x="310" y="191" width="2" height="2"/><rect x="104" y="210" width="3" height="3"/><rect x="109" y="155" width="3" height="3"/></g><rect x="121" y="122" width="1" height="37" fill="#4FA8FF" fill-opacity="0.2"/><rect x="306" y="137" width="1" height="19" fill="#7CE3FF" fill-opacity="0.2"/><rect x="83" y="8" width="1" height="19" fill="#4FA8FF" fill-opacity="0.2"/><rect x="120" y="35" width="1" height="18" fill="#7CE3FF" fill-opacity="0.2"/><rect x="244" y="121" width="1" height="24" fill="#4FA8FF" fill-opacity="0.2"/><rect x="270" y="76" width="1" height="20" fill="#7CE3FF" fill-opacity="0.3"/>
<polygon points="60,50 92,50 99,57 99,83 92,90 60,90 53,83 53,57" fill="#7CE3FF" fill-opacity="0.275" stroke="#7CE3FF" stroke-width="1.4" stroke-opacity="0.55"/><polygon points="116,50 148,50 155,57 155,83 148,90 116,90 109,83 109,57" fill="#4FA8FF" fill-opacity="0.08" stroke="#4FA8FF" stroke-width="0.8" stroke-opacity="0.16"/><polygon points="172,50 204,50 211,57 211,83 204,90 172,90 165,83 165,57" fill="#4FA8FF" fill-opacity="0.08" stroke="#4FA8FF" stroke-width="0.8" stroke-opacity="0.16"/><polygon points="228,50 260,50 267,57 267,83 260,90 228,90 221,83 221,57" fill="#4FA8FF" fill-opacity="0.08" stroke="#4FA8FF" stroke-width="0.8" stroke-opacity="0.16"/><polygon points="60,100 92,100 99,107 99,133 92,140 60,140 53,133 53,107" fill="#7CE3FF" fill-opacity="0.275" stroke="#7CE3FF" stroke-width="1.4" stroke-opacity="0.55"/><polygon points="116,100 148,100 155,107 155,133 148,140 116,140 109,133 109,107" fill="#7CE3FF" fill-opacity="0.275" stroke="#7CE3FF" stroke-width="1.4" stroke-opacity="0.55"/><polygon points="172,100 204,100 211,107 211,133 204,140 172,140 165,133 165,107" fill="#4FA8FF" fill-opacity="0.08" stroke="#4FA8FF" stroke-width="0.8" stroke-opacity="0.16"/><polygon points="228,100 260,100 267,107 267,133 260,140 228,140 221,133 221,107" fill="#7CE3FF" fill-opacity="0.275" stroke="#7CE3FF" stroke-width="1.4" stroke-opacity="0.55"/><polygon points="60,150 92,150 99,157 99,183 92,190 60,190 53,183 53,157" fill="#4FA8FF" fill-opacity="0.08" stroke="#4FA8FF" stroke-width="0.8" stroke-opacity="0.16"/><polygon points="116,150 148,150 155,157 155,183 148,190 116,190 109,183 109,157" fill="#7CE3FF" fill-opacity="0.275" stroke="#7CE3FF" stroke-width="1.4" stroke-opacity="0.55"/><polygon points="172,150 204,150 211,157 211,183 204,190 172,190 165,183 165,157" fill="#4FA8FF" fill-opacity="0.08" stroke="#4FA8FF" stroke-width="0.8" stroke-opacity="0.16"/><polygon points="228,150 260,150 267,157 267,183 260,190 228,190 221,183 221,157" fill="#7CE3FF" fill-opacity="0.275" stroke="#7CE3FF" stroke-width="1.4" stroke-opacity="0.55"/>
<polygon points="18,4 316,4 316,222 302,236 4,236 4,18" fill="none" stroke="#4FA8FF" stroke-width="1" stroke-opacity="0.30"/><rect x="284" y="4" width="28" height="1.5" fill="#22D3EE" fill-opacity="0.55"/><rect x="310.5" y="4" width="1.5" height="28" fill="#22D3EE" fill-opacity="0.55"/><rect x="4" y="234.5" width="28" height="1.5" fill="#22D3EE" fill-opacity="0.55"/><rect x="4" y="208" width="1.5" height="28" fill="#22D3EE" fill-opacity="0.55"/>
</svg>
